<svg xmlns="http://www.w3.org/2000/svg" width="18" height="18" viewBox="0 0 18 18">
  <g id="Group_183" data-name="Group 183" transform="translate(-169 -7087)">
    <circle id="Ellipse_8" data-name="Ellipse 8" cx="9" cy="9" r="9" transform="translate(169 7087)" fill="#e63b70"/>
    <path id="Icon_metro-cross" data-name="Icon metro-cross" d="M10.967,8.735h0L8.4,6.165l2.57-2.57h0a.265.265,0,0,0,0-.374L9.752,2.005a.265.265,0,0,0-.374,0h0l-2.57,2.57-2.57-2.57h0a.265.265,0,0,0-.374,0L2.648,3.22a.265.265,0,0,0,0,.374h0l2.57,2.57-2.57,2.57h0a.265.265,0,0,0,0,.374l1.214,1.214a.265.265,0,0,0,.374,0h0l2.57-2.57,2.57,2.57h0a.265.265,0,0,0,.374,0L10.966,9.11a.265.265,0,0,0,0-.374Z" transform="translate(171.193 7089.836)" fill="#fff"/>
  </g>
</svg>
