<svg xmlns="http://www.w3.org/2000/svg" width="38.797" height="31.51" viewBox="0 0 38.797 31.51">
  <path id="Icon_awesome-twitter" data-name="Icon awesome-twitter" d="M34.809,11.234c.025.345.025.689.025,1.034,0,10.512-8,22.623-22.623,22.623A22.47,22.47,0,0,1,0,31.322a16.449,16.449,0,0,0,1.92.1,15.924,15.924,0,0,0,9.872-3.4,7.965,7.965,0,0,1-7.435-5.514,10.027,10.027,0,0,0,1.5.123,8.41,8.41,0,0,0,2.092-.271,7.952,7.952,0,0,1-6.376-7.8v-.1A8.008,8.008,0,0,0,5.17,15.468,7.963,7.963,0,0,1,2.708,4.833a22.6,22.6,0,0,0,16.4,8.321,8.976,8.976,0,0,1-.2-1.822,7.959,7.959,0,0,1,13.761-5.44,15.655,15.655,0,0,0,5.047-1.92,7.93,7.93,0,0,1-3.5,4.382A15.94,15.94,0,0,0,38.8,7.123a17.093,17.093,0,0,1-3.988,4.111Z" transform="translate(0 -3.381)" fill="#fff"/>
</svg>
